<svg xmlns="http://www.w3.org/2000/svg" style="width: 45px; height: 45px;" version="1.1" data-original-aspect-ratio="1"><g transform="translate(0.0675007 -0.0225)"><polygon points="10.35,16.92 22.6125,22.59 34.425,17.19 34.425,15.075 10.35,15.075" /><path d="M 22.9275 24.345 c -0.0225 0 -0.045 0.09 -0.0675 0.09 c -0.0675 0.0225 -0.135 0.09 -0.225 0.09 c 0 0 0 0 0 0 c 0 0 0 0 0 0 s 0 0 0 0 c 0 0 0 0 0 0 c -0.0675 0 -0.135 -0.0675 -0.2025 -0.09 c -0.0225 0 -0.0225 -0.045 -0.045 -0.045 c -0.0225 0 -0.09 -0.0225 -0.1125 -0.045 L 10.35 18.8325 V 30.15 h 24.075 V 19.08 l -11.4525 5.22 C 22.95 24.3225 22.95 24.345 22.9275 24.345 Z" /><path d="M 22.4325 0.0225 c -12.42 0 -22.5 10.08 -22.5 22.5 s 10.08 22.5 22.5 22.5 c 12.42 0 22.5 -10.08 22.5 -22.5 S 34.875 0.0225 22.4325 0.0225 Z M 36.225 31.095 c 0 0.4725 -0.3825 0.855 -0.855 0.855 H 9.63 c -0.4725 0 -0.855 -0.3825 -0.855 -0.855 V 14.13 c 0 -0.4725 0.3825 -0.855 0.855 -0.855 h 25.7175 c 0.4725 0 0.855 0.3825 0.855 0.855 V 31.095 Z" /></g></svg>